<svg
    width="300"
    height="300"
    viewBox="0 0 300 300"
    fill="none"
    xmlns="http://www.w3.org/2000/svg">

    <path
        fill-rule="evenodd"
        clip-rule="evenodd"
        d="M122.983 49.5136C121.479 50.1863 120.716 51.4666 120.751 53.26C120.767 54.118 122.176 57.9086 124.346 62.9318C126.308 67.4751 127.78 71.3059 127.617 71.4443C127.454 71.5827 125.99 72.5653 124.363 73.628C116.286 78.904 109.664 87.4993 106.31 97.0603C104.073 103.44 103.135 112.413 104.502 114.364C105.96 116.445 104.526 116.382 149.994 116.382C195.462 116.382 194.028 116.445 195.486 114.364C196.853 112.413 195.915 103.44 193.677 97.0603C190.324 87.4993 183.702 78.904 175.624 73.628C173.998 72.5653 172.534 71.5827 172.371 71.4443C172.208 71.3059 173.687 67.4751 175.658 62.9318C179.41 54.2777 179.806 52.6515 178.603 50.816C177.201 48.6752 173.322 48.5778 171.968 50.6496C171.656 51.1263 169.834 55.1543 167.919 59.6002C166.004 64.0461 164.394 67.7456 164.34 67.8213C164.286 67.897 162.589 67.5472 160.569 67.0441C157.428 66.2622 155.893 66.1297 149.994 66.1297C144.095 66.1297 142.56 66.2622 139.419 67.0441C137.399 67.5472 135.699 67.897 135.642 67.8213C135.585 67.7456 134.332 64.8446 132.856 61.3746C128.657 51.4946 127.982 50.1926 126.717 49.5388C125.341 48.8275 124.53 48.8219 122.983 49.5136ZM135.806 92.2299C138.923 95.0402 136.49 100.014 132.376 99.2416C130.6 98.9084 129.095 97.0039 129.095 95.0887C129.095 93.9207 129.374 93.293 130.308 92.3588C131.942 90.7256 134.082 90.6755 135.806 92.2299ZM169.679 92.3588C171.27 93.9499 171.35 96.0626 169.883 97.8051C168.032 100.005 164.9 99.7933 163.382 97.3659C160.844 93.3076 166.295 88.9736 169.679 92.3588ZM79.3918 125.199C74.6731 126.472 71.2685 130.314 70.3218 135.434C70.0513 136.897 69.9472 145.457 70.0253 159.861L70.1447 182.036L71.1703 184.222C72.5177 187.095 74.1739 188.93 76.6218 190.262C80.2136 192.217 84.9474 192.316 88.4883 190.509C90.4729 189.497 92.9997 186.858 94.0746 184.675L94.9867 182.824L95.0943 158.998C95.1886 138.149 95.1243 134.938 94.5793 133.298C93.288 129.41 89.9457 126.269 85.9765 125.213C83.5251 124.56 81.7763 124.556 79.3918 125.199ZM106.378 125.046C105.92 125.233 105.166 125.868 104.702 126.457L103.859 127.529V163.415C103.859 197.98 103.888 199.396 104.636 201.91C106.681 208.775 112.913 214.968 119.139 216.322L120.42 216.601V227.359C120.42 233.277 120.601 239.069 120.821 240.233C122.547 249.334 132.333 253.63 140.003 248.653C142.427 247.08 143.865 245.296 144.897 242.582C145.584 240.773 145.656 239.48 145.656 228.955V217.327H149.994H154.331V228.955C154.331 239.48 154.403 240.773 155.091 242.582C156.122 245.296 157.56 247.08 159.985 248.653C167.655 253.63 177.441 249.334 179.167 240.233C179.387 239.069 179.568 233.277 179.568 227.359V216.601L180.849 216.322C187.075 214.968 193.307 208.775 195.352 201.91C196.1 199.396 196.129 197.979 196.129 163.368V127.435L194.978 126.147L193.828 124.86L150.519 124.783C126.699 124.741 106.836 124.86 106.378 125.046ZM213.825 125.211C211.442 125.9 208.593 127.886 207.17 129.851C204.746 133.197 204.775 132.823 204.893 158.998L205.001 182.824L205.913 184.675C206.988 186.858 209.515 189.497 211.499 190.509C215.04 192.316 219.774 192.217 223.366 190.262C225.814 188.93 227.47 187.095 228.817 184.222L229.843 182.036L229.962 159.861C230.088 136.658 229.978 134.681 228.385 131.491C227.303 129.324 224.636 126.815 222.332 125.796C220.089 124.804 216.166 124.534 213.825 125.211Z"
        fill="white"/>

</svg>
