<svg
    xmlns="http://www.w3.org/2000/svg"
    width="700"
    height="700"
    viewBox="0 0 700 700"
    fill="none">

    <g clip-path="url(#clip0_109_18)">
        
        <path d="M740.102 -45.1016L720.984 722.086L-27.0858 -25.9842L740.102 -45.1016Z" fill="#DDF7F5"/>
        <path fill-rule="evenodd" clip-rule="evenodd" d="M500.235 39.2958C498.296 37.8215 497.53 38.0853 488.343 43.3989C476.796 50.0758 465.411 61.3668 459.813 71.6916L457.148 76.6061L451.25 77.1458C439.859 78.1893 428.551 81.9731 417.344 88.493C411.968 91.6197 410.42 92.9629 399.342 104.11C388.316 115.203 386.744 117.036 381.942 124.401C364.133 151.717 361.072 177.403 372.271 205.576C376.652 216.597 384.795 230.428 392.667 240.219C394.351 242.314 395.804 244.299 395.895 244.63C395.986 244.961 393.612 245.482 390.619 245.788C383.781 246.487 377.211 248.816 371.081 252.715C366.443 255.666 366.227 255.714 363.194 254.499C361.479 253.813 358.147 252.088 355.789 250.666C344.814 244.047 338.542 236.692 334.963 226.244C332.224 218.247 332.009 210.7 334.203 199.582C337.069 185.06 335.024 171.978 328.449 162.769C325.17 158.176 320.112 154.681 317.588 155.263C315.648 155.711 315.098 159.197 316.033 165.112C318.625 181.489 318.048 187.363 312.159 204.583C307.971 216.829 307.717 218.076 307.779 226.115C307.854 235.835 309.886 243.194 314.901 251.908C317.404 256.257 319.493 258.785 325.904 265.222C330.256 269.592 335.627 274.379 337.839 275.862C340.051 277.344 341.862 278.853 341.862 279.216C341.862 279.578 336.348 285.574 329.609 292.542C314.026 308.65 312.308 309.647 305.622 306.453C303.298 305.343 308.153 310.336 338.294 340.052C377.946 379.145 392.703 394.721 390.894 391.567C389.451 389.053 390.06 384.692 391.271 382.78C391.773 381.989 403.525 369.848 417.386 355.799C441.195 331.67 442.752 329.97 445.511 325.086C449.148 318.649 451.07 312.981 451.929 306.163L452.595 300.882L456.24 303.81C467.293 312.691 486.386 323.596 497.186 327.196C525.313 336.573 551.571 331.561 578.829 311.613C588.704 304.385 603.302 289.596 608.029 282.03C615.104 270.708 619.051 259.63 620.488 247.069C621.233 240.56 621.467 239.897 623.312 239.068C635.189 233.735 650.12 217.942 657.379 203.035L659.283 199.124L655.804 195.328C649.7 188.666 639.491 183.147 623.616 177.928C619.227 176.485 612.593 174.639 608.874 173.826L602.114 172.348L597.06 164.496C588.782 151.637 583.605 145.026 573.005 133.779C559.542 119.494 548.627 110.463 531.409 99.3622L525.302 95.4251L522.456 84.0574C517.26 63.3084 508.431 45.5228 500.235 39.2958Z" fill="#4EB7AA"/>
    </g>

    <defs>
        <clipPath id="clip0_109_18">
            <rect width="700" height="700" fill="white"/>
        </clipPath>
    </defs>
</svg>
