<svg
    xmlns="http://www.w3.org/2000/svg"
    width="300"
    height="300"
    viewBox="0 0 300 300"
    fill="none">

    <path
        fill-rule="evenodd"
        clip-rule="evenodd"
        d="M159.744 207.016L145.592 221.205L156.362 231.54L167.132 241.874H195.391H223.65L199.134 217.351C185.65 203.863 174.456 192.828 174.257 192.828C174.059 192.828 167.528 199.213 159.744 207.016Z"
        fill="white"/>

    <path
        fill-rule="evenodd"
        clip-rule="evenodd"
        d="M131.229 207.367L116.814 194.23L157.713 153.417L168.483 143.083H196.741H225L200.484 167.606C187.001 181.094 146.179 221.556 146.179 221.556L131.229 207.367Z"
        fill="white"/>

    <path
        fill-rule="evenodd"
        clip-rule="evenodd"
        d="M89.1521 164.451L75 150.262L156.362 69.3348L167.132 58.9999H195.391H223.65L199.134 83.5233C185.65 97.0112 103.863 178.639 103.665 178.639C103.467 178.639 96.9358 172.254 89.1521 164.451Z"
        fill="white"/>

</svg>
