<svg
    xmlns="http://www.w3.org/2000/svg"
    width="300"
    height="300"
    viewBox="0 0 300 300"
    fill="none">

    <path
        d="M150.187 165.213C149.322 165.213 148.48 165.392 147.735 165.813L124.169 179.423C122.644 180.301 121.717 181.961 121.717 183.726V210.896C121.717 212.66 122.644 214.318 124.169 215.199L130.323 218.745C133.314 220.22 134.417 220.196 135.777 220.196C140.205 220.196 142.732 217.51 142.732 212.841V186.035C142.732 185.656 142.403 185.385 142.031 185.385H139.079C138.701 185.385 138.379 185.663 138.379 186.035V212.854C138.379 214.924 136.223 217.006 132.725 215.256L126.327 211.504C126.101 211.381 125.927 211.156 125.927 210.904V183.734C125.927 183.476 126.099 183.213 126.327 183.083L149.845 169.523C150.065 169.396 150.327 169.396 150.545 169.523L174.062 183.083C174.286 183.218 174.462 183.468 174.462 183.734V210.904C174.462 211.163 174.332 211.429 174.112 211.554L150.545 225.115C150.337 225.235 150.059 225.235 149.845 225.115L143.791 221.512C143.61 221.407 143.365 221.415 143.191 221.512C141.52 222.46 141.205 222.569 139.638 223.113C139.253 223.248 138.665 223.457 139.839 224.115L147.744 228.774C148.497 229.209 149.335 229.424 150.196 229.424C151.069 229.424 151.895 229.216 152.648 228.774L176.215 215.213C177.74 214.326 178.667 212.675 178.667 210.911V183.741C178.667 181.976 177.74 180.319 176.215 179.437L152.648 165.828C151.91 165.406 151.063 165.228 150.196 165.228L150.187 165.213ZM156.492 184.628C149.781 184.628 145.785 187.484 145.785 192.233C145.785 197.379 149.751 198.801 156.192 199.438C163.898 200.192 164.498 201.324 164.498 202.84C164.498 205.471 162.401 206.593 157.443 206.593C151.215 206.593 149.846 205.038 149.388 201.934C149.333 201.601 149.077 201.333 148.737 201.333H145.678C145.493 201.337 145.317 201.413 145.187 201.543C145.056 201.673 144.981 201.849 144.977 202.034C144.977 206 147.134 210.69 157.436 210.69C164.893 210.69 169.195 207.769 169.195 202.634C169.195 197.557 165.72 196.185 158.487 195.228C151.185 194.254 150.481 193.788 150.481 192.075C150.481 190.662 151.073 188.772 156.486 188.772C161.321 188.772 163.108 189.815 163.841 193.075C163.905 193.381 164.175 193.632 164.491 193.632H167.551C167.739 193.632 167.921 193.516 168.052 193.381C168.18 193.237 168.27 193.075 168.252 192.881C167.779 187.266 164.035 184.624 156.494 184.624L156.492 184.628Z"
        fill="white"/>

    <path
        d="M198.434 70.0009C198.17 70.0014 197.912 70.0704 197.683 70.2012C197.456 70.3342 197.267 70.5241 197.136 70.7523C197.004 70.9805 196.934 71.239 196.933 71.5023V109.78C196.933 110.155 196.758 110.492 196.432 110.68C196.273 110.773 196.092 110.822 195.907 110.822C195.722 110.822 195.541 110.773 195.382 110.68L189.127 107.078C188.671 106.814 188.153 106.675 187.626 106.675C187.099 106.675 186.581 106.814 186.125 107.078L161.158 121.488C160.224 122.026 159.656 123.062 159.656 124.14V152.96C159.655 153.487 159.793 154.006 160.057 154.462C160.321 154.919 160.7 155.298 161.157 155.562L186.125 169.972C186.581 170.237 187.099 170.376 187.626 170.376C188.153 170.376 188.671 170.237 189.127 169.972L214.095 155.562C214.552 155.298 214.931 154.919 215.195 154.462C215.458 154.006 215.597 153.487 215.596 152.96V81.1089C215.596 80.0157 214.999 78.9899 214.045 78.4572L199.185 70.1504C198.951 70.0204 198.692 69.9974 198.434 70.0002V70.0009ZM37.819 105.977C37.3426 105.996 36.8955 106.079 36.4678 106.327L11.5007 120.737C11.0434 121 10.6636 121.379 10.4001 121.836C10.1365 122.292 9.99848 122.811 10 123.338L10.0508 162.017C10.0508 162.555 10.3289 163.055 10.8018 163.318C11.2657 163.596 11.8408 163.596 12.3026 163.318L27.113 154.811C28.0518 154.255 28.6638 153.284 28.6638 152.21V134.147C28.6638 133.069 29.2305 132.081 30.1659 131.546L36.4706 127.893C36.9262 127.628 37.4443 127.49 37.9713 127.493C38.4986 127.49 39.0171 127.628 39.4727 127.893L45.7746 131.544C46.7086 132.079 47.2753 133.068 47.2753 134.145V152.207C47.2753 153.283 47.9012 154.259 48.8261 154.808L63.6366 163.315C64.1025 163.593 64.6762 163.593 65.1373 163.315C65.5963 163.05 65.8883 162.552 65.8883 162.014L65.9384 123.337C65.9414 122.809 65.804 122.29 65.5402 121.833C65.2765 121.376 64.896 120.997 64.4377 120.735L39.4706 106.326C39.0485 106.079 38.5993 105.995 38.1194 105.976H37.8204L37.819 105.977ZM262.179 106.327C261.652 106.326 261.134 106.464 260.678 106.728L235.71 121.138C234.778 121.677 234.208 122.662 234.208 123.739V152.559C234.208 153.643 234.818 154.625 235.758 155.16L260.526 169.277C261.44 169.799 262.557 169.839 263.478 169.326L278.489 160.97C278.965 160.706 279.287 160.212 279.288 159.669C279.29 159.127 279.008 158.639 278.537 158.369L253.419 143.958C252.949 143.69 252.619 143.147 252.619 142.607V133.595C252.619 133.057 252.953 132.563 253.419 132.295L261.224 127.791C261.689 127.523 262.259 127.523 262.726 127.791L270.535 132.295C270.764 132.426 270.954 132.616 271.085 132.844C271.217 133.072 271.286 133.332 271.286 133.595V140.7C271.285 140.964 271.354 141.223 271.486 141.452C271.617 141.68 271.807 141.869 272.036 142.001C272.504 142.271 273.071 142.272 273.538 142.001L288.498 133.296C289.426 132.757 290 131.768 290 130.695V123.741C290 123.214 289.861 122.696 289.598 122.239C289.334 121.783 288.955 121.403 288.499 121.139L263.681 106.729C263.225 106.465 262.707 106.327 262.18 106.328L262.179 106.327ZM187.525 127.843C187.665 127.843 187.803 127.877 187.926 127.943L196.482 132.896C196.714 133.031 196.882 133.279 196.882 133.547V143.454C196.882 143.723 196.715 143.97 196.482 144.104L187.926 149.057C187.693 149.189 187.409 149.189 187.175 149.057L178.619 144.104C178.386 143.97 178.219 143.721 178.219 143.454V133.545C178.219 133.277 178.387 133.031 178.619 132.895L187.175 127.942C187.292 127.875 187.395 127.843 187.525 127.843V127.842V127.843Z"
        fill="white"/>

    <path
        d="M112.823 106.176C112.296 106.175 111.778 106.313 111.321 106.577L86.3533 120.937C85.42 121.475 84.8525 122.512 84.8525 123.589V152.409C84.8511 152.936 84.9892 153.455 85.2528 153.912C85.5163 154.368 85.896 154.747 86.3533 155.01L111.321 169.42C111.777 169.685 112.295 169.825 112.822 169.825C113.349 169.825 113.867 169.685 114.323 169.42L139.291 155.01C139.748 154.747 140.127 154.368 140.391 153.911C140.655 153.454 140.793 152.936 140.792 152.408V123.588C140.792 122.51 140.225 121.474 139.29 120.936L114.322 106.576C113.866 106.311 113.348 106.173 112.82 106.175L112.823 106.176ZM262.13 131.895C262.031 131.895 261.92 131.895 261.83 131.943L257.027 134.746C256.937 134.796 256.862 134.868 256.81 134.956C256.757 135.044 256.728 135.144 256.726 135.246V140.75C256.726 140.958 256.847 141.147 257.027 141.251L261.83 144.003C261.912 144.054 262.008 144.081 262.105 144.081C262.202 144.081 262.297 144.054 262.379 144.003L267.183 141.251C267.361 141.149 267.483 140.958 267.483 140.75V135.246C267.483 135.039 267.361 134.85 267.183 134.745L262.379 131.943C262.29 131.89 262.229 131.894 262.129 131.894L262.13 131.895Z"
        fill="white"/>

</svg>
