<svg
    width="300"
    height="300"
    viewBox="0 0 300 300"
    fill="none"
    xmlns="http://www.w3.org/2000/svg">

    <path
        fill-rule="evenodd"
        clip-rule="evenodd"
        d="M146.311 60.3578C144.779 60.7756 142.662 62.6218 135.005 70.2173L125.583 79.5632L135.856 89.8519L146.129 100.141L148.415 99.6723C157.105 97.8925 165.949 106.845 164.1 115.549L163.584 117.981L173.294 127.734L183.004 137.487L186.563 137.224C192.917 136.753 197.593 139.362 200.318 144.898C202.45 149.228 202.447 152.691 200.309 157.035C195.218 167.377 180.805 167.412 175.725 157.095C174.512 154.63 174.225 153.474 174.235 151.087C174.242 149.461 174.462 147.581 174.725 146.909C175.179 145.749 174.737 145.22 166.057 136.549L156.91 127.412V151.669L156.911 175.925L159.275 177.962C166.922 184.547 165.714 195.912 156.863 200.653C154.246 202.055 153.414 202.267 150.551 202.26C144.861 202.247 140.421 199.433 137.993 194.302C135.048 188.076 137.141 180.517 142.781 177.011L145.133 175.549V150.966V126.384L142.816 124.882C140.237 123.211 137.85 119.966 137.071 117.074C136.563 115.187 136.7 110.156 137.296 108.795C137.513 108.298 134.596 105.081 127.466 97.9594L117.327 87.8309L89.1123 116.096L60.8972 144.362L60.3036 147.084C59.5315 150.623 60.2287 153.811 62.432 156.813C65.3 160.72 143.006 237.73 145.228 238.868C147.588 240.076 151.441 240.272 154.319 239.331C155.868 238.824 163.504 231.432 197.121 197.898C228.489 166.608 238.267 156.587 239.013 154.962C240.364 152.018 240.324 147.867 238.917 145.069C237.47 142.191 157.493 62.2007 154.876 61.0135C152.608 59.9847 148.76 59.6898 146.311 60.3578Z"
        fill="white"/>
</svg>
