<svg
    xmlns="http://www.w3.org/2000/svg"
    width="300"
    height="300"
    viewBox="0 0 300 300"
    fill="none">

    <path
        fill-rule="evenodd"
        clip-rule="evenodd"
        d="M131.813 99.3642C114.17 102.729 96.1549 117.013 87.6212 134.406C84.0746 141.634 83.6911 143.78 83.7309 156.171C83.7694 168.29 84.2024 170.738 87.3889 176.846C91.7836 185.275 101.585 194.57 110.25 198.531C119.509 202.76 139.584 202.626 150.696 198.258C159.539 194.783 171.517 184.621 178.175 174.943L182.47 168.702L183.939 172.999C186.394 180.171 193.522 189.046 200.589 193.726C222.727 208.391 253.747 203.652 273.696 182.561C285.394 170.191 290.228 156.783 288.738 140.829C287.199 124.348 278.859 112.038 264.307 104.768C254.065 99.6487 244.148 98.3579 231.481 100.494C211.286 103.9 196.095 114.94 186.293 133.331L181.813 141.737H158.712H135.611L131.988 149.813C129.993 154.255 128.363 158.585 128.363 159.436C128.363 160.483 133.021 160.982 142.796 160.982C150.735 160.982 157.23 161.314 157.23 161.718C157.23 164.129 151.917 169.798 147.069 172.561C139.295 176.99 134.741 177.816 127.968 176.026C109.508 171.149 104.954 147.65 119.625 132.98C126.24 126.365 133.39 123.488 141.534 124.163C147.91 124.692 150.478 125.814 158.042 131.378C159.248 132.265 163.841 131.656 171.94 129.535C178.592 127.793 184.233 126.174 184.475 125.939C185.554 124.882 179.032 114.533 174.878 110.712C168.131 104.507 163.718 102.096 154.915 99.8027C146.152 97.5208 141.906 97.4397 131.813 99.3642ZM249.236 125.88C267.031 135.081 266.272 159.832 247.815 172.228C233.646 181.743 215.849 176.773 210.088 161.69C206.208 151.529 210.287 138.934 220.08 130.834C228.35 123.992 241.324 121.789 249.236 125.88ZM30.3057 126.159C27.6251 128.838 31.5195 129.366 53.9645 129.366C74.1318 129.366 78.8455 128.996 80.2504 127.304C81.7611 125.484 78.9871 125.242 56.5915 125.242C42.6375 125.242 30.8088 125.654 30.3057 126.159ZM9.68609 138.53C6.89833 141.317 11.6862 141.754 41.3028 141.418C65.8414 141.141 73.9779 140.628 74.4095 139.332C74.8563 137.99 67.9322 137.613 42.7915 137.613C25.0875 137.613 10.1892 138.026 9.68609 138.53ZM42.6774 150.902C40.1274 153.451 43.0403 154.109 56.8815 154.109C69.4058 154.109 72.0025 153.754 72.0025 152.047C72.0025 150.347 69.5076 149.985 57.7984 149.985C49.985 149.985 43.1805 150.398 42.6774 150.902Z"
        fill="#00ACD7"/>

</svg>
