<svg
    xmlns="http://www.w3.org/2000/svg"
    width="300"
    height="300"
    viewBox="0 0 300 300"
    fill="none">

    <path
        d="M116.743 251.46C135.37 251.46 150.486 236.343 150.486 217.716V183.973H116.743C98.117 183.973 83 199.09 83 217.716C83 236.343 98.117 251.46 116.743 251.46Z"
        fill="white"/>

    <path
        d="M83 150.23C83 131.604 98.117 116.487 116.743 116.487H150.486V183.973H116.743C98.117 183.973 83 168.856 83 150.23Z"
        fill="white"/>

    <path
        d="M83 82.7433C83 64.117 98.117 49 116.743 49H150.486V116.487H116.743C98.117 116.487 83 101.37 83 82.7433Z"
        fill="white"/>

    <path
        d="M150.487 49H184.23C202.856 49 217.973 64.117 217.973 82.7433C217.973 101.37 202.856 116.487 184.23 116.487H150.487V49Z"
        fill="white"/>

    <path
        d="M217.973 150.23C217.973 168.856 202.856 183.973 184.23 183.973C165.603 183.973 150.487 168.856 150.487 150.23C150.487 131.604 165.603 116.487 184.23 116.487C202.856 116.487 217.973 131.604 217.973 150.23Z"
        fill="white"/>

</svg>
