<svg
    xmlns="http://www.w3.org/2000/svg"
    width="300"
    height="300"
    viewBox="0 0 300 300"
    fill="none">

    <path
        fill-rule="evenodd"
        clip-rule="evenodd"
        d="M163.948 230.25L143.75 250.5L159.121 265.25L174.492 280H214.823H255.154L220.165 245C200.921 225.75 184.944 210 184.661 210C184.378 210 175.057 219.113 163.948 230.25Z"
        fill="#095A9D"/>

    <path
        fill-rule="evenodd"
        clip-rule="evenodd"
        d="M123.25 230.75L102.677 212L161.049 153.753L176.419 139.003H216.75H257.081L222.092 174.003C202.848 193.253 144.588 251 144.588 251L123.25 230.75Z"
        fill="#41D0FD"/>

    <path
        fill-rule="evenodd"
        clip-rule="evenodd"
        d="M63.198 169.5L43 149.25L159.121 33.7499L174.492 18.9999H214.823H255.154L220.165 53.9999C200.921 73.2499 84.194 189.75 83.911 189.75C83.628 189.75 74.307 180.637 63.198 169.5Z"
        fill="#47D1FD"/>

</svg>
