<svg
    width="128"
    height="128"
    viewBox="0 0 128 128"
    fill="none"
    xmlns="http://www.w3.org/2000/svg">

    <path
        fill-rule="evenodd"
        clip-rule="evenodd"
        d="M35.1252 30.4593C32.8618 31.0095 30.9077 32.9671 30.386 35.207C30.0114 36.8161 30.2924 38.6877 31.1162 40.0698C31.2947 40.3692 36.6973 45.8667 43.122 52.2867L54.8032 63.959L42.9547 75.8349C30.1982 88.6217 30.5532 88.2283 30.0609 90.118C29.6644 91.6408 29.8773 93.2322 30.679 94.7362C31.9413 97.1046 34.8919 98.2537 38.0127 97.5919C39.8722 97.1977 39.3879 97.6329 52.0721 84.9634C58.5302 78.5126 63.8725 73.2352 63.9446 73.2352C64.0162 73.2352 69.3594 78.5114 75.8178 84.9604C86.7068 95.834 87.6233 96.7155 88.4275 97.0906C91.1859 98.377 94.5263 97.8526 96.4357 95.834C98.2302 93.9362 98.6458 91.0345 97.4729 88.5871C97.0846 87.7769 96.1545 86.8164 85.1021 75.814L73.1512 63.9164L84.7761 52.2654C92.0171 45.0078 96.5287 40.3877 96.7399 40.0137C97.3304 38.9672 97.5365 37.991 97.469 36.5599C97.3965 35.0249 97.0757 34.0925 96.2356 32.975C94.5954 30.7932 91.6186 29.8754 89.0279 30.7527C87.5516 31.2527 86.8766 31.8775 75.293 43.4688L63.9595 54.8096L52.2778 43.1757C39.7362 30.6852 40.0418 30.9609 38.1897 30.4784C37.2695 30.2388 36.0637 30.2312 35.1252 30.4593Z"
        fill="#FFFFFFAA"/>
</svg>
