<svg
    width="24"
    height="24"
    viewBox="0 0 24 24"
    fill="none"
    xmlns="http://www.w3.org/2000/svg">

    <path
        fill-rule="evenodd"
        clip-rule="evenodd"
        d="M5.4986 4.14794C4.137 4.61881 3.7582 5.57241 3.82767 8.35487C3.89347 10.9901 3.67267 11.4738 2.31667 11.665L2 11.7097V12.1612V12.6127L2.31667 12.66C3.69207 12.8652 3.83333 13.182 3.83333 16.0612V18.2612L4.07407 18.7612C4.559 19.7682 5.17953 20.2256 6.13607 20.2809C7.16107 20.3403 7.6 20.0924 7.6 19.4543V19.0945L7.05 19.0941C5.5156 19.0931 5.0696 18.4025 5.1778 16.1945C5.306 13.5781 4.98147 12.4429 4.05 12.2493C3.8154 12.2005 3.8154 12.1219 4.05 12.0731C4.98147 11.8795 5.306 10.7443 5.1778 8.12787C5.0696 5.91994 5.5156 5.22927 7.05 5.22827L7.6 5.22787V4.87367C7.6 4.13334 6.5698 3.77754 5.4986 4.14794ZM16.9736 4.16007C16.5945 4.28081 16.4 4.54534 16.4 4.94034V5.29454L16.95 5.29494C17.8741 5.29554 18.26 5.48527 18.5604 6.08654C18.8171 6.60041 18.8298 6.72527 18.8316 8.76121C18.8333 10.6759 18.8375 10.7383 18.9921 11.1217C19.1772 11.5811 19.6382 12.0789 19.9332 12.1379C20.1921 12.1896 20.1883 12.2719 19.9243 12.3299C19.6202 12.3967 19.1777 12.8732 18.9921 13.3341C18.8373 13.7179 18.8333 13.7778 18.8333 15.6945C18.8333 18.6722 18.5797 19.156 17.0167 19.1597L16.4 19.1612V19.5209C16.4 20.525 18.2174 20.7103 19.2428 19.8108C20.0839 19.0731 20.2163 18.539 20.1889 15.9961L20.1667 13.9268L20.337 13.5946C20.5563 13.1669 20.9067 12.9241 21.5162 12.7774L21.9991 12.6612L21.9995 12.2188L22 11.7763L21.6833 11.7291C20.3114 11.5244 20.1667 11.1997 20.1667 8.32787V6.12787L19.922 5.61547C19.3477 4.41281 18.1053 3.79954 16.9736 4.16007ZM7.6 10.2235C6.7446 10.4847 6.07587 11.2556 5.95787 12.1166L5.9152 12.4279H6.39093C6.82473 12.4279 6.86667 12.4159 6.86667 12.2924C6.86667 11.9111 7.19973 11.4338 7.614 11.2214C8.41327 10.8115 9.53333 11.4209 9.53333 12.2655C9.53333 12.4221 9.55 12.4279 10 12.4279H10.4667V12.1971C10.4667 10.9334 8.87167 9.83534 7.6 10.2235ZM15.0007 10.3047C14.2705 10.5928 13.6 11.5 13.6 12.2001V12.4339L14.0473 12.4143L14.4945 12.3945L14.5495 12.1287C14.8479 10.6867 17.2 10.8319 17.2 12.2924C17.2 12.4159 17.2419 12.4279 17.6757 12.4279H18.1515L18.1088 12.1166C17.9129 10.6877 16.3457 9.77407 15.0007 10.3047ZM10.0167 15.2838C10.2089 18.0877 14.0987 18.1129 14.2531 15.3112L14.2834 14.7612H13.7417H13.2V15.1847C13.2 15.5147 13.1666 15.6577 13.0484 15.8331C12.3817 16.8224 11.0667 16.3451 11.0667 15.1137V14.7612H10.5238H9.98093L10.0167 15.2838Z"
        fill="#003D3A"/>

</svg>
