<svg 
    xmlns="http://www.w3.org/2000/svg"
    width="300"
    height="300"
    viewBox="0 0 300 300"
    fill="none">

    <path
        fill-rule="evenodd"
        clip-rule="evenodd"
        d="M70.6877 32.3799C61.1597 34.015 54.2335 41.3078 51.8035 52.2624C50.5393 57.9622 50.9239 70.5842 52.6044 78.5652C54.6936 88.487 58.3118 100.19 62.192 109.579C62.5126 110.354 61.7899 110.742 57.7418 111.97C40.6678 117.149 27.1617 124.357 18.9854 132.653C7.2556 144.554 6.99958 158.287 18.2792 170.524C24.5183 177.292 38.548 185.193 53.0453 190.103C57.3331 191.555 60.8408 192.893 60.8408 193.078C60.8408 193.262 59.6192 196.989 58.1258 201.362C52.8768 216.728 50.826 226.988 50.8517 237.757C50.8785 249.005 53.2177 255.981 58.9261 261.842C66.8201 269.947 80.3169 271.146 95.305 265.074C108.842 259.59 124.897 249.022 139.342 236.088C142.05 233.664 144.582 231.489 144.967 231.256C145.428 230.978 147.306 232.309 150.438 235.131C171.949 254.523 190.702 265.466 206.088 267.607C219.853 269.521 230.467 262.341 234.04 248.698C236.789 238.201 234.203 218.764 227.681 200.893C226.762 198.374 226.08 196.252 226.166 196.178C226.253 196.104 229.333 195.266 233.011 194.316C258.628 187.699 276.78 177.989 284.957 166.529C295.508 151.744 289.247 135.138 268.57 123.062C261.022 118.654 249.213 113.929 236.804 110.353C233.261 109.332 230.245 108.38 230.103 108.238C229.961 108.097 230.702 105.613 231.75 102.72C234.348 95.5412 236.745 86.4142 238.072 78.6478C242.283 53.9939 234.441 37.677 217.083 34.9784C200.888 32.4609 175.363 45.2367 148.721 69.1953L144.54 72.9552L140.98 69.7423C130.383 60.1799 127.37 57.5836 122.384 53.7176C101.643 37.6354 83.5576 30.1709 70.6877 32.3799ZM84.6752 45.2088C94.3985 48.1355 109.002 57.0967 121.563 67.8441C127.667 73.0668 135.787 80.6494 135.787 81.1281C135.787 81.3797 133.509 83.9903 130.726 86.9296C127.943 89.8683 123.943 94.2004 121.837 96.5555L118.008 100.838L110.737 101.593C101.522 102.551 93.7196 103.702 84.364 105.486C72.2906 107.787 73.9147 108.198 71.6604 102.274C65.8179 86.9235 63.1521 75.9163 62.6636 65.1209C62.2916 56.9118 62.8091 53.4441 65.023 49.298C68.203 43.345 74.2813 42.0802 84.6752 45.2088ZM219.832 47.6924C222.837 49.147 225.198 52.2384 226.461 56.3746C228.449 62.8801 227.297 77.2435 223.804 89.5062C222.329 94.6829 218.863 104.71 218.343 105.304C218.105 105.576 214.998 105.289 211.182 104.643C198.028 102.415 186.67 101.079 175.093 100.396L168.721 100.02L165.246 95.8695C163.335 93.5872 159.681 89.4022 157.127 86.5696L152.482 81.4191L156.032 78.1532C166.981 68.0837 182.224 57.2428 192.406 52.2838C204.891 46.2039 213.708 44.7279 219.832 47.6924ZM146.891 92.3782C148.209 93.8076 150.217 96.0226 151.353 97.3016L153.42 99.6266H144.016H134.614L139.129 94.7031C141.612 91.9952 143.835 89.7797 144.07 89.7797C144.304 89.7797 145.573 90.9487 146.891 92.3782ZM169.812 120.278C181.696 136.173 193.06 153.648 192.485 155.144C191.489 157.74 178.261 176.37 170.436 186.197L165.318 192.625L150.689 192.561C142.643 192.526 133.677 192.341 130.764 192.151L125.468 191.805L120.917 186.057C112.222 175.074 96.3991 152.038 96.3991 150.362C96.3991 148.828 111.834 126.888 120.353 116.312L123.878 111.935L128.875 111.629C131.623 111.461 140.417 111.277 148.416 111.219L162.961 111.115L169.812 120.278ZM190.492 113.307C199.789 114.364 212.871 116.354 213.293 116.775C213.834 117.317 201.073 142.325 199.879 143.063C199.678 143.187 198.176 141.158 196.54 138.553C193.37 133.504 183.533 119.122 180.299 114.807C177.943 111.664 177.116 111.786 190.492 113.307ZM106.673 115.081C102.007 121.252 97.1458 128.04 93.7021 133.191C91.5188 136.458 89.5341 138.92 89.2923 138.662C88.1271 137.42 78.0718 118.226 78.5866 118.226C78.725 118.226 81.4969 117.703 84.7463 117.064C90.0462 116.021 105.369 113.5 107.268 113.359C107.763 113.322 107.561 113.906 106.673 115.081ZM232.62 121.194C255.837 127.562 272.792 137.302 277.222 146.817C278.911 150.444 278.911 153.296 277.222 156.923C272.473 167.125 255.015 176.625 227.802 183.817L221.623 185.451L221.155 184.251C219.931 181.108 213.263 167.569 209.98 161.559L206.308 154.837L209.008 150.345C213.344 143.129 219.605 131.409 222.476 125.133C223.938 121.936 225.281 119.32 225.461 119.32C225.64 119.32 228.862 120.163 232.62 121.194ZM71.5745 129.851C75.3776 137.45 79.0302 144.237 81.6708 148.615L82.6774 150.285L79.0619 156.548C77.074 159.992 73.2813 167.162 70.6341 172.481L65.8217 182.15L60.1854 180.354C36.6109 172.838 21.4641 161.696 21.4641 151.87C21.4641 144.555 29.6945 136.549 44.4681 129.493C50.5382 126.593 64.517 121.517 66.4448 121.511C67.1286 121.509 68.5805 123.87 71.5745 129.851ZM143.689 130.523C139.885 131.725 137.254 133.327 134.419 136.166C127.579 143.016 125.98 152.825 130.265 161.655C131.157 163.494 132.488 165.654 133.223 166.456C144.007 178.219 163.078 175.715 169.783 161.655C175.869 148.892 169.585 134.588 156.093 130.493C153.01 129.557 146.698 129.573 143.689 130.523ZM105.005 184.139C107.45 187.445 109.369 190.231 109.269 190.331C108.682 190.918 78.5816 185.807 77.6227 184.958C77.1363 184.527 80.8891 176.735 86.1052 167.344L89.3613 161.482L94.9603 169.805C98.0396 174.383 102.56 180.833 105.005 184.139ZM205.007 176.854C207.852 182.623 210.108 187.414 210.019 187.503C209.518 188.004 181.833 191.684 181.36 191.312C181.302 191.267 183.641 188.022 186.557 184.103C189.474 180.182 193.459 174.597 195.415 171.691C197.371 168.785 199.165 166.398 199.402 166.387C199.639 166.376 202.161 171.086 205.007 176.854ZM81.9022 197.779C89.6791 199.398 100.779 201.045 111.638 202.191C115.958 202.646 119.549 203.019 119.619 203.019C119.689 203.019 121.939 205.539 124.621 208.62C127.302 211.7 131.18 216 133.24 218.175C135.299 220.349 136.899 222.37 136.796 222.666C136.474 223.584 125.428 233.005 119.102 237.758C94.3859 256.326 74.3223 262.239 66.6089 253.228C63.4289 249.512 62.7538 246.648 62.7686 236.936C62.7785 230.174 63.035 227.294 64.0334 222.713C65.4541 216.193 68.2916 206.73 70.7796 200.215C72.3797 196.024 72.54 195.814 73.9022 196.105C74.6916 196.274 78.2917 197.027 81.9022 197.779ZM217.753 207.532C221.229 218.413 222.535 224.276 223.399 232.895C223.977 238.648 223.947 240.118 223.171 244.053C221.469 252.694 217.705 256.325 210.459 256.318C208.353 256.316 205.399 255.982 203.894 255.575C191.664 252.268 174.61 241.512 158.912 227.203L153.864 222.601L160.35 215.592C163.917 211.737 167.76 207.478 168.89 206.125L170.945 203.667L175.385 203.323C188.236 202.329 211.667 199.499 212.328 198.863C212.454 198.742 213.087 198.643 213.735 198.643C214.777 198.643 215.243 199.673 217.753 207.532ZM154.35 205.071C153.956 205.597 151.807 207.906 149.576 210.201L145.518 214.374L141.336 210.007C139.036 207.604 136.957 205.295 136.717 204.876C136.35 204.236 137.795 204.113 145.673 204.113C154.529 204.113 155.026 204.168 154.35 205.071Z"
        fill="#FFFFFF"/>

</svg>
