<svg xmlns="http://www.w3.org/2000/svg"
    width="250" height="209"
    viewBox="0 0 250 209"
    fill="none">

    <path
        d="M250 127.533C250 172.298 194.036 208.587 125 208.587C55.9644 208.587 0 172.298 0 127.533C0 82.7675 55.9644 121.582 125 121.582C194.036 121.582 250 82.7675 250 127.533Z"
        fill="white"/>

    <path 
        fill-rule="evenodd"
        clip-rule="evenodd"
        d="M250 117.188C250 138.491 194.036 155.762 125 155.762C55.9644 155.762 0 138.491 0 117.188C0 95.8835 22.4609 0 125 0C227.539 -9.35688e-06 250 95.8835 250 117.188ZM98.6328 84.9609C98.6328 98.1748 87.9209 108.887 74.707 108.887C61.4932 108.887 50.7812 98.1748 50.7812 84.9609C50.7812 71.7471 61.4932 61.0352 74.707 61.0352C87.9209 61.0352 98.6328 71.7471 98.6328 84.9609ZM176.27 108.887C189.483 108.887 200.195 98.1748 200.195 84.9609C200.195 71.7471 189.483 61.0352 176.27 61.0352C163.056 61.0352 152.344 71.7471 152.344 84.9609C152.344 98.1748 163.056 108.887 176.27 108.887Z"
        fill="white"/>

</svg>
