<svg 
    xmlns="http://www.w3.org/2000/svg"
    width="450"
    height="450"
    viewBox="0 0 450 450"
    fill="none">

    <path 
        d="M386.768 213.901C398.354 257.141 353.689 306.678 287.006 324.546C220.323 342.414 156.873 321.846 145.287 278.606C133.701 235.366 197.804 258.373 264.487 240.505C331.17 222.638 375.182 170.661 386.768 213.901Z" 
        fill="#4EB7AA" 
        fill-opacity="0.25"/>
    
    <path 
        fill-rule="evenodd" 
        clip-rule="evenodd" 
        d="M384.09 203.908C389.604 224.486 340.017 255.653 273.334 273.52C206.65 291.388 148.123 289.191 142.609 268.613C137.095 248.035 133.974 149.605 233.019 123.066C332.065 96.527 378.577 183.33 384.09 203.908ZM229.54 211.956C232.96 224.72 225.386 237.839 212.622 241.259C199.858 244.679 186.739 237.105 183.319 224.341C179.899 211.578 187.474 198.458 200.237 195.038C213.001 191.618 226.12 199.193 229.54 211.956ZM310.724 214.973C323.488 211.553 331.062 198.434 327.642 185.67C324.222 172.906 311.103 165.332 298.339 168.752C285.575 172.172 278.001 185.291 281.421 198.055C284.841 210.819 297.96 218.393 310.724 214.973Z" fill="#5ACBBD" fill-opacity="0.25"/>

    <path 
        d="M360.253 181.381C382.636 220.149 352.314 279.559 292.527 314.077C232.741 348.595 166.129 345.149 143.747 306.381C121.364 267.614 189.238 273.246 249.025 238.728C308.811 204.21 337.87 142.614 360.253 181.381Z"
        fill="#4EB7AA"
        fill-opacity="0.5"/>

    <path
        fill-rule="evenodd"
        clip-rule="evenodd"
        d="M355.08 172.422C365.732 190.872 325.901 233.811 266.114 268.328C206.328 302.846 149.226 315.872 138.574 297.422C127.922 278.972 99.4321 184.704 188.234 133.435C277.035 82.1652 344.428 153.972 355.08 172.422ZM207.879 220.197C214.486 231.64 210.565 246.273 199.122 252.88C187.678 259.487 173.046 255.566 166.439 244.122C159.832 232.679 163.753 218.046 175.196 211.439C186.64 204.832 201.272 208.753 207.879 220.197ZM287.078 202.099C298.521 195.492 302.442 180.859 295.835 169.415C289.228 157.972 274.595 154.051 263.152 160.658C251.708 167.265 247.787 181.898 254.394 193.341C261.001 204.785 275.634 208.706 287.078 202.099Z"
        fill="#5ACBBD"
        fill-opacity="0.5"/>

    <path
        d="M319.604 151.828C351.258 183.481 337.346 248.715 288.53 297.53C239.715 346.346 174.481 360.258 142.828 328.604C111.174 296.95 178.193 284.824 227.008 236.008C275.824 187.192 287.95 120.174 319.604 151.828Z"
        fill="#4EB7AA"/>

    <path
        fill-rule="evenodd"
        clip-rule="evenodd"
        d="M312.289 144.512C327.353 159.576 299.992 211.361 251.177 260.177C202.361 308.992 150.576 336.353 135.512 321.289C120.448 306.225 68.5305 222.543 141.037 150.037C213.543 77.5305 297.225 129.448 312.289 144.512ZM182.469 228.757C191.812 238.101 191.812 253.25 182.469 262.594C173.125 271.937 157.976 271.937 148.632 262.594C139.289 253.25 139.289 238.101 148.632 228.757C157.976 219.414 173.125 219.414 182.469 228.757ZM254.284 190.778C263.628 181.434 263.628 166.286 254.284 156.942C244.941 147.598 229.792 147.598 220.448 156.942C211.104 166.286 211.104 181.434 220.448 190.778C229.792 200.122 244.941 200.122 254.284 190.778Z"
        fill="#5ACBBD"/>

</svg>
